<mxfile host="Electron" modified="2024-06-05T08:24:08.364Z" agent="Mozilla/5.0 (Windows NT 10.0; Win64; x64) AppleWebKit/537.36 (KHTML, like Gecko) draw.io/24.2.5 Chrome/120.0.6099.109 Electron/28.1.0 Safari/537.36" etag="Z0BKLecNKj2Xsp1bfM4z" version="24.2.5" type="device">
  <diagram id="C5RBs43oDa-KdzZeNtuy" name="Page-1">
    <mxGraphModel dx="974" dy="456" grid="1" gridSize="10" guides="1" tooltips="1" connect="1" arrows="1" fold="1" page="0" pageScale="1" pageWidth="827" pageHeight="1169" math="0" shadow="0">
      <root>
        <mxCell id="WIyWlLk6GJQsqaUBKTNV-0" />
        <mxCell id="WIyWlLk6GJQsqaUBKTNV-1" parent="WIyWlLk6GJQsqaUBKTNV-0" />
        <mxCell id="Ka8rrdiuE4aKaYGKgWsx-0" value="USE CASE APLIKASI PEMESANAN LAYANAN LAUNDRY" style="swimlane;fontStyle=1" parent="WIyWlLk6GJQsqaUBKTNV-1" vertex="1">
          <mxGeometry x="140" y="90" width="500" height="670" as="geometry">
            <mxRectangle x="140" y="100" width="350" height="30" as="alternateBounds" />
          </mxGeometry>
        </mxCell>
        <mxCell id="Ka8rrdiuE4aKaYGKgWsx-4" value="Registrasi / Login" style="ellipse;whiteSpace=wrap;html=1;" parent="Ka8rrdiuE4aKaYGKgWsx-0" vertex="1">
          <mxGeometry x="221" y="38" width="95" height="40" as="geometry" />
        </mxCell>
        <mxCell id="Ka8rrdiuE4aKaYGKgWsx-9" value="Transaksi Pembayaran" style="ellipse;whiteSpace=wrap;html=1;" parent="Ka8rrdiuE4aKaYGKgWsx-0" vertex="1">
          <mxGeometry x="10" y="128" width="110" height="46" as="geometry" />
        </mxCell>
        <mxCell id="Ka8rrdiuE4aKaYGKgWsx-11" value="Mengalokasi Prioritas Pesanan" style="ellipse;whiteSpace=wrap;html=1;" parent="Ka8rrdiuE4aKaYGKgWsx-0" vertex="1">
          <mxGeometry x="360" y="315" width="120" height="40" as="geometry" />
        </mxCell>
        <mxCell id="Ka8rrdiuE4aKaYGKgWsx-16" value="Pengaturan Akun" style="ellipse;whiteSpace=wrap;html=1;" parent="Ka8rrdiuE4aKaYGKgWsx-0" vertex="1">
          <mxGeometry x="218.5" y="100" width="100" height="40" as="geometry" />
        </mxCell>
        <mxCell id="Ka8rrdiuE4aKaYGKgWsx-20" value="Alamat" style="ellipse;whiteSpace=wrap;html=1;" parent="Ka8rrdiuE4aKaYGKgWsx-0" vertex="1">
          <mxGeometry x="350" y="120" width="45" height="30" as="geometry" />
        </mxCell>
        <mxCell id="Ka8rrdiuE4aKaYGKgWsx-23" value="Nama" style="ellipse;whiteSpace=wrap;html=1;" parent="Ka8rrdiuE4aKaYGKgWsx-0" vertex="1">
          <mxGeometry x="195" y="167" width="45" height="30" as="geometry" />
        </mxCell>
        <mxCell id="Ka8rrdiuE4aKaYGKgWsx-22" value="No Telpon" style="ellipse;whiteSpace=wrap;html=1;" parent="Ka8rrdiuE4aKaYGKgWsx-0" vertex="1">
          <mxGeometry x="173.5" y="137" width="45" height="30" as="geometry" />
        </mxCell>
        <mxCell id="Ka8rrdiuE4aKaYGKgWsx-21" value="Email" style="ellipse;whiteSpace=wrap;html=1;" parent="Ka8rrdiuE4aKaYGKgWsx-0" vertex="1">
          <mxGeometry x="340" y="78" width="45" height="30" as="geometry" />
        </mxCell>
        <mxCell id="Ka8rrdiuE4aKaYGKgWsx-25" value="" style="endArrow=none;dashed=1;html=1;rounded=0;" parent="Ka8rrdiuE4aKaYGKgWsx-0" source="Ka8rrdiuE4aKaYGKgWsx-22" target="Ka8rrdiuE4aKaYGKgWsx-16" edge="1">
          <mxGeometry width="50" height="50" relative="1" as="geometry">
            <mxPoint x="196" y="260" as="sourcePoint" />
            <mxPoint x="246" y="210" as="targetPoint" />
            <Array as="points">
              <mxPoint x="240" y="150" />
            </Array>
          </mxGeometry>
        </mxCell>
        <mxCell id="Ka8rrdiuE4aKaYGKgWsx-26" value="" style="endArrow=none;dashed=1;html=1;rounded=0;" parent="Ka8rrdiuE4aKaYGKgWsx-0" source="Ka8rrdiuE4aKaYGKgWsx-23" target="Ka8rrdiuE4aKaYGKgWsx-16" edge="1">
          <mxGeometry width="50" height="50" relative="1" as="geometry">
            <mxPoint x="196" y="260" as="sourcePoint" />
            <mxPoint x="246" y="210" as="targetPoint" />
            <Array as="points">
              <mxPoint x="250" y="160" />
            </Array>
          </mxGeometry>
        </mxCell>
        <mxCell id="Ka8rrdiuE4aKaYGKgWsx-27" value="" style="endArrow=none;dashed=1;html=1;rounded=0;" parent="Ka8rrdiuE4aKaYGKgWsx-0" source="Ka8rrdiuE4aKaYGKgWsx-20" target="Ka8rrdiuE4aKaYGKgWsx-16" edge="1">
          <mxGeometry width="50" height="50" relative="1" as="geometry">
            <mxPoint x="196" y="260" as="sourcePoint" />
            <mxPoint x="246" y="210" as="targetPoint" />
            <Array as="points">
              <mxPoint x="320" y="135" />
            </Array>
          </mxGeometry>
        </mxCell>
        <mxCell id="Ka8rrdiuE4aKaYGKgWsx-28" value="" style="endArrow=none;dashed=1;html=1;rounded=0;" parent="Ka8rrdiuE4aKaYGKgWsx-0" source="Ka8rrdiuE4aKaYGKgWsx-21" target="Ka8rrdiuE4aKaYGKgWsx-16" edge="1">
          <mxGeometry width="50" height="50" relative="1" as="geometry">
            <mxPoint x="196" y="260" as="sourcePoint" />
            <mxPoint x="246" y="210" as="targetPoint" />
            <Array as="points">
              <mxPoint x="310" y="93" />
            </Array>
          </mxGeometry>
        </mxCell>
        <mxCell id="Ka8rrdiuE4aKaYGKgWsx-35" value="" style="endArrow=none;html=1;rounded=0;" parent="Ka8rrdiuE4aKaYGKgWsx-0" source="Ka8rrdiuE4aKaYGKgWsx-30" target="Ka8rrdiuE4aKaYGKgWsx-29" edge="1">
          <mxGeometry width="50" height="50" relative="1" as="geometry">
            <mxPoint x="196" y="260" as="sourcePoint" />
            <mxPoint x="246" y="210" as="targetPoint" />
            <Array as="points">
              <mxPoint x="240" y="248" />
            </Array>
          </mxGeometry>
        </mxCell>
        <mxCell id="Ka8rrdiuE4aKaYGKgWsx-36" value="" style="endArrow=none;html=1;rounded=0;" parent="Ka8rrdiuE4aKaYGKgWsx-0" source="Ka8rrdiuE4aKaYGKgWsx-31" target="Ka8rrdiuE4aKaYGKgWsx-29" edge="1">
          <mxGeometry width="50" height="50" relative="1" as="geometry">
            <mxPoint x="196" y="260" as="sourcePoint" />
            <mxPoint x="246" y="210" as="targetPoint" />
          </mxGeometry>
        </mxCell>
        <mxCell id="Ka8rrdiuE4aKaYGKgWsx-44" value="Riwayat&lt;div&gt;Transaksi&lt;/div&gt;" style="ellipse;whiteSpace=wrap;html=1;" parent="Ka8rrdiuE4aKaYGKgWsx-0" vertex="1">
          <mxGeometry x="218.5" y="315" width="100" height="40" as="geometry" />
        </mxCell>
        <mxCell id="Ka8rrdiuE4aKaYGKgWsx-79" value="Mengelola Pesanan" style="ellipse;whiteSpace=wrap;html=1;" parent="Ka8rrdiuE4aKaYGKgWsx-0" vertex="1">
          <mxGeometry x="218.5" y="458" width="100" height="40" as="geometry" />
        </mxCell>
        <mxCell id="Ka8rrdiuE4aKaYGKgWsx-83" value="Menolak" style="ellipse;whiteSpace=wrap;html=1;" parent="Ka8rrdiuE4aKaYGKgWsx-0" vertex="1">
          <mxGeometry x="168.5" y="510" width="70" height="30" as="geometry" />
        </mxCell>
        <mxCell id="Ka8rrdiuE4aKaYGKgWsx-82" value="Konfirmasi" style="ellipse;whiteSpace=wrap;html=1;" parent="Ka8rrdiuE4aKaYGKgWsx-0" vertex="1">
          <mxGeometry x="310" y="510" width="70" height="30" as="geometry" />
        </mxCell>
        <mxCell id="Ka8rrdiuE4aKaYGKgWsx-81" value="Mengganti Status" style="ellipse;whiteSpace=wrap;html=1;" parent="Ka8rrdiuE4aKaYGKgWsx-0" vertex="1">
          <mxGeometry x="350" y="458" width="75" height="40" as="geometry" />
        </mxCell>
        <mxCell id="Ka8rrdiuE4aKaYGKgWsx-84" value="" style="endArrow=none;dashed=1;html=1;rounded=0;" parent="Ka8rrdiuE4aKaYGKgWsx-0" source="Ka8rrdiuE4aKaYGKgWsx-82" target="Ka8rrdiuE4aKaYGKgWsx-79" edge="1">
          <mxGeometry width="50" height="50" relative="1" as="geometry">
            <mxPoint x="210" y="380" as="sourcePoint" />
            <mxPoint x="260" y="330" as="targetPoint" />
            <Array as="points">
              <mxPoint x="290" y="520" />
            </Array>
          </mxGeometry>
        </mxCell>
        <mxCell id="Ka8rrdiuE4aKaYGKgWsx-85" value="" style="endArrow=none;dashed=1;html=1;rounded=0;" parent="Ka8rrdiuE4aKaYGKgWsx-0" source="Ka8rrdiuE4aKaYGKgWsx-83" target="Ka8rrdiuE4aKaYGKgWsx-79" edge="1">
          <mxGeometry width="50" height="50" relative="1" as="geometry">
            <mxPoint x="212" y="442" as="sourcePoint" />
            <mxPoint x="250" y="464" as="targetPoint" />
            <Array as="points">
              <mxPoint x="260" y="520" />
            </Array>
          </mxGeometry>
        </mxCell>
        <mxCell id="Ka8rrdiuE4aKaYGKgWsx-86" value="" style="endArrow=none;dashed=1;html=1;rounded=0;" parent="Ka8rrdiuE4aKaYGKgWsx-0" source="Ka8rrdiuE4aKaYGKgWsx-81" target="Ka8rrdiuE4aKaYGKgWsx-79" edge="1">
          <mxGeometry width="50" height="50" relative="1" as="geometry">
            <mxPoint x="222" y="452" as="sourcePoint" />
            <mxPoint x="260" y="474" as="targetPoint" />
            <Array as="points">
              <mxPoint x="340" y="500" />
            </Array>
          </mxGeometry>
        </mxCell>
        <mxCell id="Ka8rrdiuE4aKaYGKgWsx-91" value="Pengaturan Toko" style="ellipse;whiteSpace=wrap;html=1;" parent="Ka8rrdiuE4aKaYGKgWsx-0" vertex="1">
          <mxGeometry x="218.5" y="560" width="100" height="40" as="geometry" />
        </mxCell>
        <mxCell id="Ka8rrdiuE4aKaYGKgWsx-96" value="Mengatur Jadwal Penyucian" style="ellipse;whiteSpace=wrap;html=1;" parent="Ka8rrdiuE4aKaYGKgWsx-0" vertex="1">
          <mxGeometry x="340" y="568" width="104" height="50" as="geometry" />
        </mxCell>
        <mxCell id="Ka8rrdiuE4aKaYGKgWsx-94" value="Mengatur Promo" style="ellipse;whiteSpace=wrap;html=1;" parent="Ka8rrdiuE4aKaYGKgWsx-0" vertex="1">
          <mxGeometry x="260" y="622" width="130" height="40" as="geometry" />
        </mxCell>
        <mxCell id="Ka8rrdiuE4aKaYGKgWsx-93" value="Mengatur detail toko" style="ellipse;whiteSpace=wrap;html=1;" parent="Ka8rrdiuE4aKaYGKgWsx-0" vertex="1">
          <mxGeometry x="88.5" y="590" width="80" height="40" as="geometry" />
        </mxCell>
        <mxCell id="Ka8rrdiuE4aKaYGKgWsx-92" value="Mengatur price list" style="ellipse;whiteSpace=wrap;html=1;" parent="Ka8rrdiuE4aKaYGKgWsx-0" vertex="1">
          <mxGeometry x="171.5" y="620" width="80" height="40" as="geometry" />
        </mxCell>
        <mxCell id="Ka8rrdiuE4aKaYGKgWsx-99" style="edgeStyle=orthogonalEdgeStyle;rounded=0;orthogonalLoop=1;jettySize=auto;html=1;exitX=0.5;exitY=1;exitDx=0;exitDy=0;" parent="Ka8rrdiuE4aKaYGKgWsx-0" edge="1">
          <mxGeometry relative="1" as="geometry">
            <mxPoint x="395" y="625" as="sourcePoint" />
            <mxPoint x="395" y="625" as="targetPoint" />
          </mxGeometry>
        </mxCell>
        <mxCell id="Ka8rrdiuE4aKaYGKgWsx-100" value="" style="endArrow=none;dashed=1;html=1;rounded=0;" parent="Ka8rrdiuE4aKaYGKgWsx-0" source="Ka8rrdiuE4aKaYGKgWsx-91" target="Ka8rrdiuE4aKaYGKgWsx-96" edge="1">
          <mxGeometry width="50" height="50" relative="1" as="geometry">
            <mxPoint x="210" y="380" as="sourcePoint" />
            <mxPoint x="260" y="330" as="targetPoint" />
          </mxGeometry>
        </mxCell>
        <mxCell id="Ka8rrdiuE4aKaYGKgWsx-102" value="" style="endArrow=none;dashed=1;html=1;rounded=0;" parent="Ka8rrdiuE4aKaYGKgWsx-0" source="Ka8rrdiuE4aKaYGKgWsx-91" target="Ka8rrdiuE4aKaYGKgWsx-94" edge="1">
          <mxGeometry width="50" height="50" relative="1" as="geometry">
            <mxPoint x="303" y="591" as="sourcePoint" />
            <mxPoint x="314" y="573" as="targetPoint" />
            <Array as="points">
              <mxPoint x="280" y="620" />
            </Array>
          </mxGeometry>
        </mxCell>
        <mxCell id="Ka8rrdiuE4aKaYGKgWsx-103" value="" style="endArrow=none;dashed=1;html=1;rounded=0;" parent="Ka8rrdiuE4aKaYGKgWsx-0" source="Ka8rrdiuE4aKaYGKgWsx-91" target="Ka8rrdiuE4aKaYGKgWsx-92" edge="1">
          <mxGeometry width="50" height="50" relative="1" as="geometry">
            <mxPoint x="313" y="601" as="sourcePoint" />
            <mxPoint x="324" y="583" as="targetPoint" />
            <Array as="points">
              <mxPoint x="250" y="620" />
            </Array>
          </mxGeometry>
        </mxCell>
        <mxCell id="Ka8rrdiuE4aKaYGKgWsx-104" value="" style="endArrow=none;dashed=1;html=1;rounded=0;" parent="Ka8rrdiuE4aKaYGKgWsx-0" source="Ka8rrdiuE4aKaYGKgWsx-93" target="Ka8rrdiuE4aKaYGKgWsx-91" edge="1">
          <mxGeometry width="50" height="50" relative="1" as="geometry">
            <mxPoint x="323" y="611" as="sourcePoint" />
            <mxPoint x="334" y="593" as="targetPoint" />
            <Array as="points">
              <mxPoint x="230" y="610" />
            </Array>
          </mxGeometry>
        </mxCell>
        <mxCell id="Ka8rrdiuE4aKaYGKgWsx-105" value="" style="endArrow=none;dashed=1;html=1;rounded=0;" parent="Ka8rrdiuE4aKaYGKgWsx-0" source="Ka8rrdiuE4aKaYGKgWsx-16" target="Ka8rrdiuE4aKaYGKgWsx-4" edge="1">
          <mxGeometry width="50" height="50" relative="1" as="geometry">
            <mxPoint x="210" y="380" as="sourcePoint" />
            <mxPoint x="260" y="330" as="targetPoint" />
          </mxGeometry>
        </mxCell>
        <mxCell id="Ka8rrdiuE4aKaYGKgWsx-106" value="" style="endArrow=none;dashed=1;html=1;rounded=0;" parent="Ka8rrdiuE4aKaYGKgWsx-0" source="Ka8rrdiuE4aKaYGKgWsx-9" target="Ka8rrdiuE4aKaYGKgWsx-4" edge="1">
          <mxGeometry width="50" height="50" relative="1" as="geometry">
            <mxPoint x="210" y="380" as="sourcePoint" />
            <mxPoint x="260" y="330" as="targetPoint" />
            <Array as="points">
              <mxPoint x="65" y="80" />
            </Array>
          </mxGeometry>
        </mxCell>
        <mxCell id="Ka8rrdiuE4aKaYGKgWsx-107" value="" style="endArrow=none;dashed=1;html=1;rounded=0;" parent="Ka8rrdiuE4aKaYGKgWsx-0" source="Ka8rrdiuE4aKaYGKgWsx-11" target="RhqdJh3K1ohm2jnMH_xI-10" edge="1">
          <mxGeometry width="50" height="50" relative="1" as="geometry">
            <mxPoint x="70" y="160" as="sourcePoint" />
            <mxPoint x="232" y="74" as="targetPoint" />
            <Array as="points" />
          </mxGeometry>
        </mxCell>
        <mxCell id="Ka8rrdiuE4aKaYGKgWsx-109" value="" style="endArrow=none;dashed=1;html=1;rounded=0;" parent="Ka8rrdiuE4aKaYGKgWsx-0" source="Ka8rrdiuE4aKaYGKgWsx-29" target="Ka8rrdiuE4aKaYGKgWsx-4" edge="1">
          <mxGeometry width="50" height="50" relative="1" as="geometry">
            <mxPoint x="150" y="230" as="sourcePoint" />
            <mxPoint x="232" y="74" as="targetPoint" />
            <Array as="points">
              <mxPoint x="160" y="210" />
              <mxPoint x="160" y="110" />
            </Array>
          </mxGeometry>
        </mxCell>
        <mxCell id="Ka8rrdiuE4aKaYGKgWsx-110" value="" style="endArrow=none;dashed=1;html=1;rounded=0;" parent="Ka8rrdiuE4aKaYGKgWsx-0" source="Ka8rrdiuE4aKaYGKgWsx-79" target="Ka8rrdiuE4aKaYGKgWsx-29" edge="1">
          <mxGeometry width="50" height="50" relative="1" as="geometry">
            <mxPoint x="196.04334634538236" y="299.16738910575634" as="sourcePoint" />
            <mxPoint x="240" y="88" as="targetPoint" />
            <Array as="points">
              <mxPoint x="130" y="410" />
              <mxPoint x="130" y="260" />
            </Array>
          </mxGeometry>
        </mxCell>
        <mxCell id="Ka8rrdiuE4aKaYGKgWsx-112" value="" style="endArrow=none;dashed=1;html=1;rounded=0;" parent="Ka8rrdiuE4aKaYGKgWsx-0" source="Ka8rrdiuE4aKaYGKgWsx-79" target="RhqdJh3K1ohm2jnMH_xI-10" edge="1">
          <mxGeometry width="50" height="50" relative="1" as="geometry">
            <mxPoint x="211" y="301" as="sourcePoint" />
            <mxPoint x="200" y="70" as="targetPoint" />
            <Array as="points" />
          </mxGeometry>
        </mxCell>
        <mxCell id="Ka8rrdiuE4aKaYGKgWsx-113" value="" style="endArrow=none;dashed=1;html=1;rounded=0;" parent="Ka8rrdiuE4aKaYGKgWsx-0" source="Ka8rrdiuE4aKaYGKgWsx-91" target="RhqdJh3K1ohm2jnMH_xI-10" edge="1">
          <mxGeometry width="50" height="50" relative="1" as="geometry">
            <mxPoint x="30" y="600" as="sourcePoint" />
            <mxPoint x="250" y="88" as="targetPoint" />
            <Array as="points">
              <mxPoint x="150" y="580" />
              <mxPoint x="150" y="490" />
            </Array>
          </mxGeometry>
        </mxCell>
        <mxCell id="Ka8rrdiuE4aKaYGKgWsx-29" value="Pemesanan Jasa" style="ellipse;whiteSpace=wrap;html=1;" parent="Ka8rrdiuE4aKaYGKgWsx-0" vertex="1">
          <mxGeometry x="216" y="210" width="104" height="40" as="geometry" />
        </mxCell>
        <mxCell id="Ka8rrdiuE4aKaYGKgWsx-34" value="Setrika" style="ellipse;whiteSpace=wrap;html=1;" parent="Ka8rrdiuE4aKaYGKgWsx-0" vertex="1">
          <mxGeometry x="367" y="162" width="50" height="30" as="geometry" />
        </mxCell>
        <mxCell id="Ka8rrdiuE4aKaYGKgWsx-33" value="Satuan" style="ellipse;whiteSpace=wrap;html=1;" parent="Ka8rrdiuE4aKaYGKgWsx-0" vertex="1">
          <mxGeometry x="345" y="225" width="50" height="30" as="geometry" />
        </mxCell>
        <mxCell id="Ka8rrdiuE4aKaYGKgWsx-32" value="Kiloan" style="ellipse;whiteSpace=wrap;html=1;" parent="Ka8rrdiuE4aKaYGKgWsx-0" vertex="1">
          <mxGeometry x="380" y="197" width="50" height="30" as="geometry" />
        </mxCell>
        <mxCell id="Ka8rrdiuE4aKaYGKgWsx-31" value="Laundry" style="ellipse;whiteSpace=wrap;html=1;" parent="Ka8rrdiuE4aKaYGKgWsx-0" vertex="1">
          <mxGeometry x="283.5" y="157" width="50" height="40" as="geometry" />
        </mxCell>
        <mxCell id="Ka8rrdiuE4aKaYGKgWsx-30" value="Antar Jemput" style="ellipse;whiteSpace=wrap;html=1;" parent="Ka8rrdiuE4aKaYGKgWsx-0" vertex="1">
          <mxGeometry x="178.25" y="260" width="66.5" height="40" as="geometry" />
        </mxCell>
        <mxCell id="RhqdJh3K1ohm2jnMH_xI-2" value="Promo" style="ellipse;whiteSpace=wrap;html=1;" vertex="1" parent="Ka8rrdiuE4aKaYGKgWsx-0">
          <mxGeometry x="283.5" y="255" width="66.5" height="40" as="geometry" />
        </mxCell>
        <mxCell id="RhqdJh3K1ohm2jnMH_xI-6" value="" style="endArrow=none;html=1;rounded=0;" edge="1" parent="Ka8rrdiuE4aKaYGKgWsx-0" source="RhqdJh3K1ohm2jnMH_xI-2" target="Ka8rrdiuE4aKaYGKgWsx-29">
          <mxGeometry width="50" height="50" relative="1" as="geometry">
            <mxPoint x="325" y="260" as="sourcePoint" />
            <mxPoint x="288" y="260" as="targetPoint" />
          </mxGeometry>
        </mxCell>
        <mxCell id="RhqdJh3K1ohm2jnMH_xI-7" value="" style="endArrow=none;dashed=1;html=1;rounded=0;" edge="1" parent="Ka8rrdiuE4aKaYGKgWsx-0" source="Ka8rrdiuE4aKaYGKgWsx-31" target="Ka8rrdiuE4aKaYGKgWsx-34">
          <mxGeometry width="50" height="50" relative="1" as="geometry">
            <mxPoint x="308" y="314" as="sourcePoint" />
            <mxPoint x="260" y="270" as="targetPoint" />
            <Array as="points" />
          </mxGeometry>
        </mxCell>
        <mxCell id="RhqdJh3K1ohm2jnMH_xI-9" value="" style="endArrow=none;dashed=1;html=1;rounded=0;" edge="1" parent="Ka8rrdiuE4aKaYGKgWsx-0" source="Ka8rrdiuE4aKaYGKgWsx-33" target="Ka8rrdiuE4aKaYGKgWsx-31">
          <mxGeometry width="50" height="50" relative="1" as="geometry">
            <mxPoint x="318" y="324" as="sourcePoint" />
            <mxPoint x="270" y="280" as="targetPoint" />
            <Array as="points">
              <mxPoint x="330" y="220" />
            </Array>
          </mxGeometry>
        </mxCell>
        <mxCell id="RhqdJh3K1ohm2jnMH_xI-8" value="" style="endArrow=none;dashed=1;html=1;rounded=0;" edge="1" parent="Ka8rrdiuE4aKaYGKgWsx-0" source="Ka8rrdiuE4aKaYGKgWsx-32" target="Ka8rrdiuE4aKaYGKgWsx-31">
          <mxGeometry width="50" height="50" relative="1" as="geometry">
            <mxPoint x="308" y="314" as="sourcePoint" />
            <mxPoint x="260" y="270" as="targetPoint" />
            <Array as="points">
              <mxPoint x="350" y="210" />
            </Array>
          </mxGeometry>
        </mxCell>
        <mxCell id="RhqdJh3K1ohm2jnMH_xI-10" value="Membuat Toko" style="ellipse;whiteSpace=wrap;html=1;" vertex="1" parent="Ka8rrdiuE4aKaYGKgWsx-0">
          <mxGeometry x="218.5" y="390" width="100" height="40" as="geometry" />
        </mxCell>
        <mxCell id="RhqdJh3K1ohm2jnMH_xI-14" value="" style="endArrow=none;dashed=1;html=1;rounded=0;" edge="1" parent="Ka8rrdiuE4aKaYGKgWsx-0" source="RhqdJh3K1ohm2jnMH_xI-10" target="Ka8rrdiuE4aKaYGKgWsx-4">
          <mxGeometry width="50" height="50" relative="1" as="geometry">
            <mxPoint x="230" y="232" as="sourcePoint" />
            <mxPoint x="238" y="80" as="targetPoint" />
            <Array as="points">
              <mxPoint x="150" y="360" />
              <mxPoint x="150" y="100" />
            </Array>
          </mxGeometry>
        </mxCell>
        <mxCell id="Ka8rrdiuE4aKaYGKgWsx-17" value="" style="endArrow=none;html=1;rounded=0;fontStyle=1;strokeColor=#001DBC;fillColor=#0050ef;" parent="WIyWlLk6GJQsqaUBKTNV-1" source="Ka8rrdiuE4aKaYGKgWsx-1" target="Ka8rrdiuE4aKaYGKgWsx-16" edge="1">
          <mxGeometry width="50" height="50" relative="1" as="geometry">
            <mxPoint x="200" y="360" as="sourcePoint" />
            <mxPoint x="330" y="120" as="targetPoint" />
            <Array as="points">
              <mxPoint x="160" y="320" />
              <mxPoint x="200" y="320" />
              <mxPoint x="320" y="220" />
            </Array>
          </mxGeometry>
        </mxCell>
        <mxCell id="Ka8rrdiuE4aKaYGKgWsx-1" value="&lt;b&gt;&lt;font color=&quot;#3333ff&quot;&gt;User&lt;/font&gt;&lt;/b&gt;" style="shape=umlActor;verticalLabelPosition=bottom;verticalAlign=top;html=1;outlineConnect=0;fillColor=#0050ef;strokeColor=#001DBC;fontColor=#ffffff;strokeWidth=3;" parent="WIyWlLk6GJQsqaUBKTNV-1" vertex="1">
          <mxGeometry x="80" y="310" width="30" height="60" as="geometry" />
        </mxCell>
        <mxCell id="Ka8rrdiuE4aKaYGKgWsx-5" value="" style="endArrow=none;html=1;rounded=0;strokeColor=#001DBC;fillColor=#0050ef;" parent="WIyWlLk6GJQsqaUBKTNV-1" target="Ka8rrdiuE4aKaYGKgWsx-4" edge="1">
          <mxGeometry width="50" height="50" relative="1" as="geometry">
            <mxPoint x="108.33333333333337" y="309" as="sourcePoint" />
            <mxPoint x="361.1344382721121" y="152.5036686262821" as="targetPoint" />
            <Array as="points">
              <mxPoint x="170" y="158" />
            </Array>
          </mxGeometry>
        </mxCell>
        <mxCell id="Ka8rrdiuE4aKaYGKgWsx-10" value="" style="endArrow=none;html=1;rounded=0;fontStyle=1;strokeColor=#001DBC;fillColor=#0050ef;" parent="WIyWlLk6GJQsqaUBKTNV-1" source="Ka8rrdiuE4aKaYGKgWsx-1" target="Ka8rrdiuE4aKaYGKgWsx-9" edge="1">
          <mxGeometry width="50" height="50" relative="1" as="geometry">
            <mxPoint x="300" y="430" as="sourcePoint" />
            <mxPoint x="290" y="290" as="targetPoint" />
            <Array as="points">
              <mxPoint x="160" y="300" />
              <mxPoint x="205" y="300" />
            </Array>
          </mxGeometry>
        </mxCell>
        <mxCell id="Ka8rrdiuE4aKaYGKgWsx-2" value="" style="shape=umlActor;verticalLabelPosition=bottom;verticalAlign=top;html=1;outlineConnect=0;fillColor=#d80073;fontColor=#ffffff;strokeColor=#A50040;strokeWidth=3;" parent="WIyWlLk6GJQsqaUBKTNV-1" vertex="1">
          <mxGeometry x="660" y="190" width="30" height="60" as="geometry" />
        </mxCell>
        <mxCell id="Ka8rrdiuE4aKaYGKgWsx-6" value="" style="endArrow=none;html=1;rounded=0;strokeColor=#A50040;fillColor=#d80073;" parent="WIyWlLk6GJQsqaUBKTNV-1" source="Ka8rrdiuE4aKaYGKgWsx-2" target="Ka8rrdiuE4aKaYGKgWsx-4" edge="1">
          <mxGeometry width="50" height="50" relative="1" as="geometry">
            <mxPoint x="186" y="330" as="sourcePoint" />
            <mxPoint x="385" y="150" as="targetPoint" />
            <Array as="points">
              <mxPoint x="590" y="148" />
            </Array>
          </mxGeometry>
        </mxCell>
        <mxCell id="Ka8rrdiuE4aKaYGKgWsx-12" value="" style="endArrow=none;html=1;rounded=0;strokeColor=#A50040;fillColor=#d80073;" parent="WIyWlLk6GJQsqaUBKTNV-1" source="Ka8rrdiuE4aKaYGKgWsx-2" target="Ka8rrdiuE4aKaYGKgWsx-11" edge="1">
          <mxGeometry width="50" height="50" relative="1" as="geometry">
            <mxPoint x="560" y="300" as="sourcePoint" />
            <mxPoint x="480" y="150" as="targetPoint" />
            <Array as="points">
              <mxPoint x="650" y="330" />
            </Array>
          </mxGeometry>
        </mxCell>
        <mxCell id="Ka8rrdiuE4aKaYGKgWsx-45" value="" style="endArrow=none;html=1;rounded=0;fontStyle=1;strokeColor=#001DBC;fillColor=#0050ef;" parent="WIyWlLk6GJQsqaUBKTNV-1" source="Ka8rrdiuE4aKaYGKgWsx-1" target="Ka8rrdiuE4aKaYGKgWsx-44" edge="1">
          <mxGeometry width="50" height="50" relative="1" as="geometry">
            <mxPoint x="120" y="343" as="sourcePoint" />
            <mxPoint x="197" y="280" as="targetPoint" />
            <Array as="points">
              <mxPoint x="160" y="360" />
              <mxPoint x="160" y="425" />
            </Array>
          </mxGeometry>
        </mxCell>
        <mxCell id="Ka8rrdiuE4aKaYGKgWsx-47" value="" style="endArrow=none;html=1;rounded=0;fontStyle=1;strokeColor=#001DBC;fillColor=#0050ef;" parent="WIyWlLk6GJQsqaUBKTNV-1" source="Ka8rrdiuE4aKaYGKgWsx-1" target="Ka8rrdiuE4aKaYGKgWsx-29" edge="1">
          <mxGeometry width="50" height="50" relative="1" as="geometry">
            <mxPoint x="120" y="350" as="sourcePoint" />
            <mxPoint x="241" y="375" as="targetPoint" />
            <Array as="points">
              <mxPoint x="240" y="340" />
            </Array>
          </mxGeometry>
        </mxCell>
        <mxCell id="Ka8rrdiuE4aKaYGKgWsx-51" value="Melakukan" style="edgeLabel;html=1;align=center;verticalAlign=middle;resizable=0;points=[];fontSize=12;" parent="Ka8rrdiuE4aKaYGKgWsx-47" vertex="1" connectable="0">
          <mxGeometry x="0.0198" y="-2" relative="1" as="geometry">
            <mxPoint x="-32" as="offset" />
          </mxGeometry>
        </mxCell>
        <mxCell id="Ka8rrdiuE4aKaYGKgWsx-61" value="" style="endArrow=none;html=1;rounded=0;strokeColor=#A50040;fillColor=#d80073;" parent="WIyWlLk6GJQsqaUBKTNV-1" source="Ka8rrdiuE4aKaYGKgWsx-44" target="Ka8rrdiuE4aKaYGKgWsx-2" edge="1">
          <mxGeometry width="50" height="50" relative="1" as="geometry">
            <mxPoint x="560" y="480" as="sourcePoint" />
            <mxPoint x="760" y="307" as="targetPoint" />
            <Array as="points">
              <mxPoint x="520" y="380" />
              <mxPoint x="610" y="300" />
              <mxPoint x="610" y="240" />
            </Array>
          </mxGeometry>
        </mxCell>
        <mxCell id="Ka8rrdiuE4aKaYGKgWsx-66" value="" style="endArrow=none;html=1;rounded=0;strokeColor=#A50040;fillColor=#d80073;" parent="WIyWlLk6GJQsqaUBKTNV-1" source="Ka8rrdiuE4aKaYGKgWsx-79" target="Ka8rrdiuE4aKaYGKgWsx-2" edge="1">
          <mxGeometry width="50" height="50" relative="1" as="geometry">
            <mxPoint x="453.4837367575442" y="502.4623457758064" as="sourcePoint" />
            <mxPoint x="760" y="250" as="targetPoint" />
            <Array as="points">
              <mxPoint x="690" y="490" />
              <mxPoint x="690" y="290" />
            </Array>
          </mxGeometry>
        </mxCell>
        <mxCell id="VBCXD2bm5n2J6XlxSA-z-2" value="&lt;p style=&quot;line-height: 0%;&quot;&gt;&lt;b&gt;&lt;font color=&quot;#cc0066&quot;&gt;User Toko&lt;/font&gt;&lt;/b&gt;&lt;/p&gt;" style="edgeLabel;html=1;align=center;verticalAlign=middle;resizable=0;points=[];fontSize=12;rotation=0;" parent="WIyWlLk6GJQsqaUBKTNV-1" vertex="1" connectable="0">
          <mxGeometry x="675" y="269.9991918223961" as="geometry">
            <mxPoint x="3" y="-5" as="offset" />
          </mxGeometry>
        </mxCell>
        <mxCell id="RhqdJh3K1ohm2jnMH_xI-0" value="" style="endArrow=none;html=1;rounded=0;strokeColor=#A50040;fillColor=#d80073;" edge="1" parent="WIyWlLk6GJQsqaUBKTNV-1" source="Ka8rrdiuE4aKaYGKgWsx-91" target="Ka8rrdiuE4aKaYGKgWsx-2">
          <mxGeometry width="50" height="50" relative="1" as="geometry">
            <mxPoint x="466" y="544" as="sourcePoint" />
            <mxPoint x="780" y="242" as="targetPoint" />
            <Array as="points">
              <mxPoint x="710" y="570" />
              <mxPoint x="710" y="290" />
            </Array>
          </mxGeometry>
        </mxCell>
        <mxCell id="RhqdJh3K1ohm2jnMH_xI-11" value="" style="endArrow=none;html=1;rounded=0;fontStyle=1;strokeColor=#001DBC;fillColor=#0050ef;" edge="1" parent="WIyWlLk6GJQsqaUBKTNV-1" source="Ka8rrdiuE4aKaYGKgWsx-1" target="RhqdJh3K1ohm2jnMH_xI-10">
          <mxGeometry width="50" height="50" relative="1" as="geometry">
            <mxPoint x="120" y="355" as="sourcePoint" />
            <mxPoint x="368" y="460" as="targetPoint" />
            <Array as="points">
              <mxPoint x="150" y="390" />
              <mxPoint x="150" y="500" />
            </Array>
          </mxGeometry>
        </mxCell>
        <mxCell id="RhqdJh3K1ohm2jnMH_xI-12" value="" style="endArrow=none;dashed=1;html=1;rounded=0;" edge="1" parent="WIyWlLk6GJQsqaUBKTNV-1" source="Ka8rrdiuE4aKaYGKgWsx-2" target="RhqdJh3K1ohm2jnMH_xI-10">
          <mxGeometry width="50" height="50" relative="1" as="geometry">
            <mxPoint x="610" y="470" as="sourcePoint" />
            <mxPoint x="386" y="525" as="targetPoint" />
            <Array as="points">
              <mxPoint x="675" y="370" />
              <mxPoint x="630" y="450" />
            </Array>
          </mxGeometry>
        </mxCell>
      </root>
    </mxGraphModel>
  </diagram>
</mxfile>
